# Blender 5.1.1
# www.blender.org
mtllib Model_v2.mtl
o Cylinder
v 0.002668 -1.816137 -2.000954
v 0.002668 3.822542 -2.000954
v 0.197758 -1.816137 -1.981739
v 0.197758 3.822542 -1.981739
v 0.385351 -1.816137 -1.924833
v 0.385351 3.822542 -1.924833
v 0.558238 -1.816137 -1.832423
v 0.558238 3.822542 -1.832423
v 0.709774 -1.816137 -1.708061
v 0.709774 3.822542 -1.708061
v 0.834137 -1.816137 -1.556524
v 0.834137 3.822542 -1.556524
v 0.926547 -1.816137 -1.383637
v 0.926547 3.822542 -1.383637
v 0.983453 -1.816137 -1.196044
v 0.983453 3.822542 -1.196044
v 1.002668 -1.816137 -1.000954
v 1.002668 3.822542 -1.000954
v 0.983453 -1.816137 -0.805863
v 0.983453 3.822542 -0.805863
v 0.926547 -1.816137 -0.618270
v 0.926547 3.822542 -0.618270
v 0.834137 -1.816137 -0.445383
v 0.834137 3.822542 -0.445383
v 0.709774 -1.816137 -0.293847
v 0.709774 3.822542 -0.293847
v 0.558238 -1.816137 -0.169484
v 0.558238 3.822542 -0.169484
v 0.385351 -1.816137 -0.077074
v 0.385351 3.822542 -0.077074
v 0.197758 -1.816137 -0.020168
v 0.197758 3.822542 -0.020168
v 0.002668 -1.816137 -0.000954
v 0.002668 3.822542 -0.000954
v -0.192423 -1.816137 -0.020168
v -0.192423 3.822542 -0.020168
v -0.380016 -1.816137 -0.077074
v -0.380016 3.822542 -0.077074
v -0.552903 -1.816137 -0.169484
v -0.552903 3.822542 -0.169484
v -0.704439 -1.816137 -0.293847
v -0.704439 3.822542 -0.293847
v -0.828802 -1.816137 -0.445383
v -0.828802 3.822542 -0.445383
v -0.921212 -1.816137 -0.618270
v -0.921212 3.822542 -0.618270
v -0.978118 -1.816137 -0.805863
v -0.978118 3.822542 -0.805863
v -0.997332 -1.816137 -1.000954
v -0.997332 3.822542 -1.000954
v -0.978118 -1.816137 -1.196044
v -0.978118 3.822542 -1.196044
v -0.921212 -1.816137 -1.383637
v -0.921212 3.822542 -1.383637
v -0.828802 -1.816137 -1.556524
v -0.828802 3.822542 -1.556524
v -0.704439 -1.816137 -1.708061
v -0.704439 3.822542 -1.708061
v -0.552903 -1.816137 -1.832423
v -0.552903 3.822542 -1.832423
v -0.380016 -1.816137 -1.924833
v -0.380016 3.822542 -1.924833
v -0.192423 -1.816137 -1.981739
v -0.192423 3.822542 -1.981739
vn 0.0980 -0.0000 -0.9952
vn 0.2903 -0.0000 -0.9569
vn 0.4714 -0.0000 -0.8819
vn 0.6344 -0.0000 -0.7730
vn 0.7730 -0.0000 -0.6344
vn 0.8819 -0.0000 -0.4714
vn 0.9569 -0.0000 -0.2903
vn 0.9952 -0.0000 -0.0980
vn 0.9952 -0.0000 0.0980
vn 0.9569 -0.0000 0.2903
vn 0.8819 -0.0000 0.4714
vn 0.7730 -0.0000 0.6344
vn 0.6344 -0.0000 0.7730
vn 0.4714 -0.0000 0.8819
vn 0.2903 -0.0000 0.9569
vn 0.0980 -0.0000 0.9952
vn -0.0980 -0.0000 0.9952
vn -0.2903 -0.0000 0.9569
vn -0.4714 -0.0000 0.8819
vn -0.6344 -0.0000 0.7730
vn -0.7730 -0.0000 0.6344
vn -0.8819 -0.0000 0.4714
vn -0.9569 -0.0000 0.2903
vn -0.9952 -0.0000 0.0980
vn -0.9952 -0.0000 -0.0980
vn -0.9569 -0.0000 -0.2903
vn -0.8819 -0.0000 -0.4714
vn -0.7730 -0.0000 -0.6344
vn -0.6344 -0.0000 -0.7730
vn -0.4714 -0.0000 -0.8819
vn -0.0000 1.0000 -0.0000
vn -0.2903 -0.0000 -0.9569
vn -0.0980 -0.0000 -0.9952
vn -0.0000 -1.0000 -0.0000
vt 1.000000 0.500000
vt 1.000000 1.000000
vt 0.968750 1.000000
vt 0.968750 0.500000
vt 0.937500 1.000000
vt 0.937500 0.500000
vt 0.906250 1.000000
vt 0.906250 0.500000
vt 0.875000 1.000000
vt 0.875000 0.500000
vt 0.843750 1.000000
vt 0.843750 0.500000
vt 0.812500 1.000000
vt 0.812500 0.500000
vt 0.781250 1.000000
vt 0.781250 0.500000
vt 0.750000 1.000000
vt 0.750000 0.500000
vt 0.718750 1.000000
vt 0.718750 0.500000
vt 0.687500 1.000000
vt 0.687500 0.500000
vt 0.656250 1.000000
vt 0.656250 0.500000
vt 0.625000 1.000000
vt 0.625000 0.500000
vt 0.593750 1.000000
vt 0.593750 0.500000
vt 0.562500 1.000000
vt 0.562500 0.500000
vt 0.531250 1.000000
vt 0.531250 0.500000
vt 0.500000 1.000000
vt 0.500000 0.500000
vt 0.468750 1.000000
vt 0.468750 0.500000
vt 0.437500 1.000000
vt 0.437500 0.500000
vt 0.406250 1.000000
vt 0.406250 0.500000
vt 0.375000 1.000000
vt 0.375000 0.500000
vt 0.343750 1.000000
vt 0.343750 0.500000
vt 0.312500 1.000000
vt 0.312500 0.500000
vt 0.281250 1.000000
vt 0.281250 0.500000
vt 0.250000 1.000000
vt 0.250000 0.500000
vt 0.218750 1.000000
vt 0.218750 0.500000
vt 0.187500 1.000000
vt 0.187500 0.500000
vt 0.156250 1.000000
vt 0.156250 0.500000
vt 0.125000 1.000000
vt 0.125000 0.500000
vt 0.093750 1.000000
vt 0.093750 0.500000
vt 0.062500 1.000000
vt 0.062500 0.500000
vt 0.296822 0.485388
vt 0.250000 0.490000
vt 0.203178 0.485388
vt 0.158156 0.471731
vt 0.116663 0.449553
vt 0.080294 0.419706
vt 0.050447 0.383337
vt 0.028269 0.341844
vt 0.014612 0.296822
vt 0.010000 0.250000
vt 0.014612 0.203178
vt 0.028269 0.158156
vt 0.050447 0.116663
vt 0.080294 0.080294
vt 0.116663 0.050447
vt 0.158156 0.028269
vt 0.203178 0.014612
vt 0.250000 0.010000
vt 0.296822 0.014612
vt 0.341844 0.028269
vt 0.383337 0.050447
vt 0.419706 0.080294
vt 0.449553 0.116663
vt 0.471731 0.158156
vt 0.485388 0.203178
vt 0.490000 0.250000
vt 0.485388 0.296822
vt 0.471731 0.341844
vt 0.449553 0.383337
vt 0.419706 0.419706
vt 0.383337 0.449553
vt 0.341844 0.471731
vt 0.031250 1.000000
vt 0.031250 0.500000
vt 0.000000 1.000000
vt 0.000000 0.500000
vt 0.750000 0.490000
vt 0.796822 0.485388
vt 0.841844 0.471731
vt 0.883337 0.449553
vt 0.919706 0.419706
vt 0.949553 0.383337
vt 0.971731 0.341844
vt 0.985388 0.296822
vt 0.990000 0.250000
vt 0.985388 0.203178
vt 0.971731 0.158156
vt 0.949553 0.116663
vt 0.919706 0.080294
vt 0.883337 0.050447
vt 0.841844 0.028269
vt 0.796822 0.014612
vt 0.750000 0.010000
vt 0.703178 0.014612
vt 0.658156 0.028269
vt 0.616663 0.050447
vt 0.580294 0.080294
vt 0.550447 0.116663
vt 0.528269 0.158156
vt 0.514612 0.203178
vt 0.510000 0.250000
vt 0.514612 0.296822
vt 0.528269 0.341844
vt 0.550447 0.383337
vt 0.580294 0.419706
vt 0.616663 0.449553
vt 0.658156 0.471731
vt 0.703178 0.485388
s 0
f 1/1/1 2/2/1 4/3/1 3/4/1
f 3/4/2 4/3/2 6/5/2 5/6/2
f 5/6/3 6/5/3 8/7/3 7/8/3
f 7/8/4 8/7/4 10/9/4 9/10/4
f 9/10/5 10/9/5 12/11/5 11/12/5
f 11/12/6 12/11/6 14/13/6 13/14/6
f 13/14/7 14/13/7 16/15/7 15/16/7
f 15/16/8 16/15/8 18/17/8 17/18/8
f 17/18/9 18/17/9 20/19/9 19/20/9
f 19/20/10 20/19/10 22/21/10 21/22/10
f 21/22/11 22/21/11 24/23/11 23/24/11
f 23/24/12 24/23/12 26/25/12 25/26/12
f 25/26/13 26/25/13 28/27/13 27/28/13
f 27/28/14 28/27/14 30/29/14 29/30/14
f 29/30/15 30/29/15 32/31/15 31/32/15
f 31/32/16 32/31/16 34/33/16 33/34/16
f 33/34/17 34/33/17 36/35/17 35/36/17
f 35/36/18 36/35/18 38/37/18 37/38/18
f 37/38/19 38/37/19 40/39/19 39/40/19
f 39/40/20 40/39/20 42/41/20 41/42/20
f 41/42/21 42/41/21 44/43/21 43/44/21
f 43/44/22 44/43/22 46/45/22 45/46/22
f 45/46/23 46/45/23 48/47/23 47/48/23
f 47/48/24 48/47/24 50/49/24 49/50/24
f 49/50/25 50/49/25 52/51/25 51/52/25
f 51/52/26 52/51/26 54/53/26 53/54/26
f 53/54/27 54/53/27 56/55/27 55/56/27
f 55/56/28 56/55/28 58/57/28 57/58/28
f 57/58/29 58/57/29 60/59/29 59/60/29
f 59/60/30 60/59/30 62/61/30 61/62/30
f 4/63/31 2/64/31 64/65/31 62/66/31 60/67/31 58/68/31 56/69/31 54/70/31 52/71/31 50/72/31 48/73/31 46/74/31 44/75/31 42/76/31 40/77/31 38/78/31 36/79/31 34/80/31 32/81/31 30/82/31 28/83/31 26/84/31 24/85/31 22/86/31 20/87/31 18/88/31 16/89/31 14/90/31 12/91/31 10/92/31 8/93/31 6/94/31
f 61/62/32 62/61/32 64/95/32 63/96/32
f 63/96/33 64/95/33 2/97/33 1/98/33
f 1/99/34 3/100/34 5/101/34 7/102/34 9/103/34 11/104/34 13/105/34 15/106/34 17/107/34 19/108/34 21/109/34 23/110/34 25/111/34 27/112/34 29/113/34 31/114/34 33/115/34 35/116/34 37/117/34 39/118/34 41/119/34 43/120/34 45/121/34 47/122/34 49/123/34 51/124/34 53/125/34 55/126/34 57/127/34 59/128/34 61/129/34 63/130/34
o Cylinder.001
v -0.010972 3.679098 -1.167888
v 0.039701 3.730402 7.809069
v 0.153096 3.659058 -1.168699
v 0.203770 3.710362 7.808257
v 0.310668 3.601356 -1.169259
v 0.361342 3.652660 7.807697
v 0.455688 3.508207 -1.169545
v 0.506362 3.559511 7.807411
v 0.582583 3.383193 -1.169547
v 0.633256 3.434497 7.807409
v 0.686476 3.231117 -1.169264
v 0.737150 3.282421 7.807692
v 0.763375 3.057824 -1.168708
v 0.814049 3.109128 7.808248
v 0.810325 2.869973 -1.167899
v 0.860999 2.921277 7.809056
v 0.825521 2.674783 -1.166870
v 0.876195 2.726087 7.810086
v 0.808380 2.479756 -1.165658
v 0.859054 2.531060 7.811297
v 0.759560 2.292385 -1.164312
v 0.810234 2.343689 7.812644
v 0.680938 2.119872 -1.162882
v 0.731611 2.171176 7.814074
v 0.575534 1.968846 -1.161424
v 0.626208 2.020150 7.815532
v 0.447399 1.845111 -1.159994
v 0.498073 1.896415 7.816962
v 0.301458 1.753422 -1.158646
v 0.352132 1.804726 7.818310
v 0.143319 1.697303 -1.157432
v 0.193993 1.748607 7.819524
v -0.020941 1.678910 -1.156400
v 0.029733 1.730214 7.820556
v -0.185010 1.698950 -1.155588
v -0.134336 1.750254 7.821367
v -0.342582 1.756653 -1.155029
v -0.291908 1.807957 7.821927
v -0.487601 1.849801 -1.154742
v -0.436927 1.901105 7.822213
v -0.614496 1.974815 -1.154741
v -0.563822 2.026119 7.822215
v -0.718389 2.126891 -1.155023
v -0.667716 2.178195 7.821933
v -0.795289 2.300184 -1.155580
v -0.744615 2.351488 7.821377
v -0.842239 2.488035 -1.156388
v -0.791565 2.539340 7.820568
v -0.857435 2.683225 -1.157418
v -0.806761 2.734529 7.819538
v -0.840294 2.878253 -1.158629
v -0.789620 2.929557 7.818327
v -0.791474 3.065623 -1.159976
v -0.740800 3.116927 7.816980
v -0.712851 3.238136 -1.161405
v -0.662177 3.289441 7.815551
v -0.607447 3.389162 -1.162863
v -0.556773 3.440466 7.814093
v -0.479313 3.512897 -1.164294
v -0.428639 3.564201 7.812662
v -0.333372 3.604586 -1.165642
v -0.282698 3.655890 7.811315
v -0.175232 3.660705 -1.166855
v -0.124559 3.712009 7.810101
v -0.010972 3.679098 -1.167888
v 0.153096 3.659058 -1.168699
v 0.203770 3.710362 7.808257
v 0.039701 3.730402 7.809069
vn 0.0056 0.0057 1.0000
vn 0.3438 0.9390 -0.0073
vn 0.5404 0.8414 -0.0079
vn 0.7018 0.7123 -0.0080
vn 0.8257 0.5641 -0.0079
vn 0.9140 0.4056 -0.0075
vn 0.9701 0.2424 -0.0069
vn 0.9970 0.0776 -0.0061
vn 0.9961 -0.0876 -0.0051
vn 0.9677 -0.2522 -0.0040
vn 0.9099 -0.4147 -0.0028
vn 0.8200 -0.5723 -0.0014
vn 0.6947 -0.7193 0.0002
vn 0.5320 -0.8467 0.0018
vn 0.3345 -0.9424 0.0035
vn 0.1113 -0.9938 0.0051
vn -0.1212 -0.9926 0.0064
vn -0.3438 -0.9390 0.0073
vn -0.5404 -0.8414 0.0079
vn -0.7018 -0.7123 0.0080
vn -0.8257 -0.5641 0.0079
vn -0.9140 -0.4056 0.0075
vn -0.9701 -0.2424 0.0069
vn -0.9970 -0.0776 0.0061
vn -0.9961 0.0876 0.0051
vn -0.9677 0.2522 0.0040
vn -0.9099 0.4147 0.0028
vn -0.8200 0.5723 0.0014
vn -0.6947 0.7193 -0.0002
vn -0.5320 0.8467 -0.0018
vn -0.3345 0.9424 -0.0035
vn -0.1113 0.9938 -0.0051
vn -0.0056 -0.0057 -1.0000
vn 0.1212 0.9926 -0.0064
vt 0.000000 0.500000
vt 0.000000 1.000000
vt 0.968750 0.500000
vt 0.968750 1.000000
vt 0.937500 1.000000
vt 0.937500 0.500000
vt 0.906250 1.000000
vt 0.906250 0.500000
vt 0.875000 1.000000
vt 0.875000 0.500000
vt 0.843750 1.000000
vt 0.843750 0.500000
vt 0.812500 1.000000
vt 0.812500 0.500000
vt 0.781250 1.000000
vt 0.781250 0.500000
vt 0.750000 1.000000
vt 0.750000 0.500000
vt 0.718750 1.000000
vt 0.718750 0.500000
vt 0.687500 1.000000
vt 0.687500 0.500000
vt 0.656250 1.000000
vt 0.656250 0.500000
vt 0.625000 1.000000
vt 0.625000 0.500000
vt 0.593750 1.000000
vt 0.593750 0.500000
vt 0.562500 1.000000
vt 0.562500 0.500000
vt 0.531250 1.000000
vt 0.531250 0.500000
vt 0.500000 1.000000
vt 0.500000 0.500000
vt 0.468750 1.000000
vt 0.468750 0.500000
vt 0.437500 1.000000
vt 0.437500 0.500000
vt 0.406250 1.000000
vt 0.406250 0.500000
vt 0.375000 1.000000
vt 0.375000 0.500000
vt 0.343750 1.000000
vt 0.343750 0.500000
vt 0.312500 1.000000
vt 0.312500 0.500000
vt 0.281250 1.000000
vt 0.281250 0.500000
vt 0.250000 1.000000
vt 0.250000 0.500000
vt 0.218750 1.000000
vt 0.218750 0.500000
vt 0.187500 1.000000
vt 0.187500 0.500000
vt 0.156250 1.000000
vt 0.156250 0.500000
vt 0.125000 1.000000
vt 0.125000 0.500000
vt 0.093750 1.000000
vt 0.093750 0.500000
vt 0.062500 1.000000
vt 0.062500 0.500000
vt 0.296822 0.485388
vt 0.250000 0.490000
vt 0.203178 0.485388
vt 0.158156 0.471731
vt 0.116663 0.449553
vt 0.080294 0.419706
vt 0.050447 0.383337
vt 0.028269 0.341844
vt 0.014612 0.296822
vt 0.010000 0.250000
vt 0.014612 0.203178
vt 0.028269 0.158156
vt 0.050447 0.116663
vt 0.080294 0.080294
vt 0.116663 0.050447
vt 0.158156 0.028269
vt 0.203178 0.014612
vt 0.250000 0.010000
vt 0.296822 0.014612
vt 0.341844 0.028269
vt 0.383337 0.050447
vt 0.419706 0.080294
vt 0.449553 0.116663
vt 0.471731 0.158156
vt 0.485388 0.203178
vt 0.490000 0.250000
vt 0.485388 0.296822
vt 0.471731 0.341844
vt 0.449553 0.383337
vt 0.419706 0.419706
vt 0.383337 0.449553
vt 0.341844 0.471731
vt 0.031250 1.000000
vt 0.031250 0.500000
vt 0.750000 0.490000
vt 0.796822 0.485388
vt 0.841844 0.471731
vt 0.883337 0.449553
vt 0.919706 0.419706
vt 0.949553 0.383337
vt 0.971731 0.341844
vt 0.985388 0.296822
vt 0.990000 0.250000
vt 0.985388 0.203178
vt 0.971731 0.158156
vt 0.949553 0.116663
vt 0.919706 0.080294
vt 0.883337 0.050447
vt 0.841844 0.028269
vt 0.796822 0.014612
vt 0.750000 0.010000
vt 0.703178 0.014612
vt 0.658156 0.028269
vt 0.616663 0.050447
vt 0.580294 0.080294
vt 0.550447 0.116663
vt 0.528269 0.158156
vt 0.514612 0.203178
vt 0.510000 0.250000
vt 0.514612 0.296822
vt 0.528269 0.341844
vt 0.550447 0.383337
vt 0.580294 0.419706
vt 0.616663 0.449553
vt 0.658156 0.471731
vt 0.703178 0.485388
vt 1.000000 0.500000
vt 1.000000 1.000000
s 0
f 65/131/35 66/132/35 132/132/35 129/131/35
f 67/133/36 68/134/36 70/135/36 69/136/36
f 69/136/37 70/135/37 72/137/37 71/138/37
f 71/138/38 72/137/38 74/139/38 73/140/38
f 73/140/39 74/139/39 76/141/39 75/142/39
f 75/142/40 76/141/40 78/143/40 77/144/40
f 77/144/41 78/143/41 80/145/41 79/146/41
f 79/146/42 80/145/42 82/147/42 81/148/42
f 81/148/43 82/147/43 84/149/43 83/150/43
f 83/150/44 84/149/44 86/151/44 85/152/44
f 85/152/45 86/151/45 88/153/45 87/154/45
f 87/154/46 88/153/46 90/155/46 89/156/46
f 89/156/47 90/155/47 92/157/47 91/158/47
f 91/158/48 92/157/48 94/159/48 93/160/48
f 93/160/49 94/159/49 96/161/49 95/162/49
f 95/162/50 96/161/50 98/163/50 97/164/50
f 97/164/51 98/163/51 100/165/51 99/166/51
f 99/166/52 100/165/52 102/167/52 101/168/52
f 101/168/53 102/167/53 104/169/53 103/170/53
f 103/170/54 104/169/54 106/171/54 105/172/54
f 105/172/55 106/171/55 108/173/55 107/174/55
f 107/174/56 108/173/56 110/175/56 109/176/56
f 109/176/57 110/175/57 112/177/57 111/178/57
f 111/178/58 112/177/58 114/179/58 113/180/58
f 113/180/59 114/179/59 116/181/59 115/182/59
f 115/182/60 116/181/60 118/183/60 117/184/60
f 117/184/61 118/183/61 120/185/61 119/186/61
f 119/186/62 120/185/62 122/187/62 121/188/62
f 121/188/63 122/187/63 124/189/63 123/190/63
f 123/190/64 124/189/64 126/191/64 125/192/64
f 68/193/35 66/194/35 128/195/35 126/196/35 124/197/35 122/198/35 120/199/35 118/200/35 116/201/35 114/202/35 112/203/35 110/204/35 108/205/35 106/206/35 104/207/35 102/208/35 100/209/35 98/210/35 96/211/35 94/212/35 92/213/35 90/214/35 88/215/35 86/216/35 84/217/35 82/218/35 80/219/35 78/220/35 76/221/35 74/222/35 72/223/35 70/224/35
f 125/192/65 126/191/65 128/225/65 127/226/65
f 127/226/66 128/225/66 66/132/66 65/131/66
f 65/227/67 67/228/67 69/229/67 71/230/67 73/231/67 75/232/67 77/233/67 79/234/67 81/235/67 83/236/67 85/237/67 87/238/67 89/239/67 91/240/67 93/241/67 95/242/67 97/243/67 99/244/67 101/245/67 103/246/67 105/247/67 107/248/67 109/249/67 111/250/67 113/251/67 115/252/67 117/253/67 119/254/67 121/255/67 123/256/67 125/257/67 127/258/67
f 129/259/68 132/260/68 131/134/68 130/133/68
f 67/228/35 65/227/35 129/227/35 130/228/35
f 68/134/35 67/133/35 130/133/35 131/134/35
f 66/194/35 68/193/35 131/193/35 132/194/35
o Cube
v -0.903473 1.889655 13.660604
v -0.871409 3.889545 13.662024
v -0.979816 1.895214 7.557395
v -0.947752 3.895104 7.558816
v 1.096424 1.857609 13.635558
v 1.128488 3.857499 13.636978
v 1.020082 1.863168 7.532351
v 1.052145 3.863058 7.533771
vn -0.9998 0.0160 0.0125
vn -0.0125 0.0009 -0.9999
vn 0.9998 -0.0160 -0.0125
vn 0.0125 -0.0009 0.9999
vn -0.0160 -0.9999 -0.0007
vn 0.0160 0.9999 0.0007
vt 0.375000 0.000000
vt 0.625000 0.000000
vt 0.625000 0.250000
vt 0.375000 0.250000
vt 0.625000 0.500000
vt 0.375000 0.500000
vt 0.625000 0.750000
vt 0.375000 0.750000
vt 0.625000 1.000000
vt 0.375000 1.000000
vt 0.125000 0.500000
vt 0.125000 0.750000
vt 0.875000 0.500000
vt 0.875000 0.750000
s 0
f 133/261/69 134/262/69 136/263/69 135/264/69
f 135/264/70 136/263/70 140/265/70 139/266/70
f 139/266/71 140/265/71 138/267/71 137/268/71
f 137/268/72 138/267/72 134/269/72 133/270/72
f 135/271/73 139/266/73 137/268/73 133/272/73
f 140/265/74 136/273/74 134/274/74 138/267/74
o Цилиндр.001
v -0.063424 2.507437 1.059999
v -0.063424 5.360423 1.059999
v 0.086221 2.507437 1.074737
v 0.086221 5.360423 1.074737
v 0.230114 2.507437 1.118387
v 0.230114 5.360423 1.118387
v 0.362727 2.507437 1.189270
v 0.362727 5.360423 1.189270
v 0.478963 2.507437 1.284663
v 0.478963 5.360423 1.284663
v 0.574356 2.507437 1.400899
v 0.574356 5.360423 1.400899
v 0.645239 2.507437 1.533512
v 0.645239 5.360423 1.533512
v 0.688889 2.507437 1.677405
v 0.688889 5.360423 1.677405
v 0.703627 2.507437 1.827050
v 0.703627 5.360423 1.827050
v 0.688889 2.507437 1.976694
v 0.688889 5.360423 1.976694
v 0.645239 2.507437 2.120588
v 0.645239 5.360423 2.120588
v 0.574356 2.507437 2.253201
v 0.574356 5.360423 2.253201
v 0.478963 2.507437 2.369437
v 0.478963 5.360423 2.369437
v 0.362727 2.507437 2.464829
v 0.362727 5.360423 2.464829
v 0.230114 2.507437 2.535712
v 0.230114 5.360423 2.535712
v 0.086221 2.507437 2.579362
v 0.086221 5.360423 2.579362
v -0.063424 2.507437 2.594101
v -0.063424 5.360423 2.594101
v -0.213068 2.507437 2.579362
v -0.213068 5.360423 2.579362
v -0.356961 2.507437 2.535712
v -0.356961 5.360423 2.535712
v -0.489574 2.507437 2.464829
v -0.489574 5.360423 2.464829
v -0.605811 2.507437 2.369437
v -0.605811 5.360423 2.369437
v -0.701203 2.507437 2.253201
v -0.701203 5.360423 2.253201
v -0.772086 2.507437 2.120588
v -0.772086 5.360423 2.120588
v -0.815736 2.507437 1.976694
v -0.815736 5.360423 1.976694
v -0.830475 2.507437 1.827050
v -0.830475 5.360423 1.827050
v -0.815736 2.507437 1.677405
v -0.815736 5.360423 1.677405
v -0.772086 2.507437 1.533512
v -0.772086 5.360423 1.533512
v -0.701203 2.507437 1.400899
v -0.701203 5.360423 1.400899
v -0.605811 2.507437 1.284663
v -0.605811 5.360423 1.284663
v -0.489574 2.507437 1.189270
v -0.489574 5.360423 1.189270
v -0.356961 2.507437 1.118387
v -0.356961 5.360423 1.118387
v -0.213068 2.507437 1.074737
v -0.213068 5.360423 1.074737
vn 0.0980 -0.0000 -0.9952
vn 0.2903 -0.0000 -0.9569
vn 0.4714 -0.0000 -0.8819
vn 0.6344 -0.0000 -0.7730
vn 0.7730 -0.0000 -0.6344
vn 0.8819 -0.0000 -0.4714
vn 0.9569 -0.0000 -0.2903
vn 0.9952 -0.0000 -0.0980
vn 0.9952 -0.0000 0.0980
vn 0.9569 -0.0000 0.2903
vn 0.8819 -0.0000 0.4714
vn 0.7730 -0.0000 0.6344
vn 0.6344 -0.0000 0.7730
vn 0.4714 -0.0000 0.8819
vn 0.2903 -0.0000 0.9569
vn 0.0980 -0.0000 0.9952
vn -0.0980 -0.0000 0.9952
vn -0.2903 -0.0000 0.9569
vn -0.4714 -0.0000 0.8819
vn -0.6344 -0.0000 0.7730
vn -0.7730 -0.0000 0.6344
vn -0.8819 -0.0000 0.4714
vn -0.9569 -0.0000 0.2903
vn -0.9952 -0.0000 0.0980
vn -0.9952 -0.0000 -0.0980
vn -0.9569 -0.0000 -0.2903
vn -0.8819 -0.0000 -0.4714
vn -0.7730 -0.0000 -0.6344
vn -0.6344 -0.0000 -0.7730
vn -0.4714 -0.0000 -0.8819
vn -0.0000 1.0000 -0.0000
vn -0.2903 -0.0000 -0.9569
vn -0.0980 -0.0000 -0.9952
vn -0.0000 -1.0000 -0.0000
vt 1.000000 0.500000
vt 1.000000 1.000000
vt 0.968750 1.000000
vt 0.968750 0.500000
vt 0.937500 1.000000
vt 0.937500 0.500000
vt 0.906250 1.000000
vt 0.906250 0.500000
vt 0.875000 1.000000
vt 0.875000 0.500000
vt 0.843750 1.000000
vt 0.843750 0.500000
vt 0.812500 1.000000
vt 0.812500 0.500000
vt 0.781250 1.000000
vt 0.781250 0.500000
vt 0.750000 1.000000
vt 0.750000 0.500000
vt 0.718750 1.000000
vt 0.718750 0.500000
vt 0.687500 1.000000
vt 0.687500 0.500000
vt 0.656250 1.000000
vt 0.656250 0.500000
vt 0.625000 1.000000
vt 0.625000 0.500000
vt 0.593750 1.000000
vt 0.593750 0.500000
vt 0.562500 1.000000
vt 0.562500 0.500000
vt 0.531250 1.000000
vt 0.531250 0.500000
vt 0.500000 1.000000
vt 0.500000 0.500000
vt 0.468750 1.000000
vt 0.468750 0.500000
vt 0.437500 1.000000
vt 0.437500 0.500000
vt 0.406250 1.000000
vt 0.406250 0.500000
vt 0.375000 1.000000
vt 0.375000 0.500000
vt 0.343750 1.000000
vt 0.343750 0.500000
vt 0.312500 1.000000
vt 0.312500 0.500000
vt 0.281250 1.000000
vt 0.281250 0.500000
vt 0.250000 1.000000
vt 0.250000 0.500000
vt 0.218750 1.000000
vt 0.218750 0.500000
vt 0.187500 1.000000
vt 0.187500 0.500000
vt 0.156250 1.000000
vt 0.156250 0.500000
vt 0.125000 1.000000
vt 0.125000 0.500000
vt 0.093750 1.000000
vt 0.093750 0.500000
vt 0.062500 1.000000
vt 0.062500 0.500000
vt 0.296822 0.485388
vt 0.250000 0.490000
vt 0.203178 0.485388
vt 0.158156 0.471731
vt 0.116663 0.449553
vt 0.080294 0.419706
vt 0.050447 0.383337
vt 0.028269 0.341844
vt 0.014612 0.296822
vt 0.010000 0.250000
vt 0.014612 0.203178
vt 0.028269 0.158156
vt 0.050447 0.116663
vt 0.080294 0.080294
vt 0.116663 0.050447
vt 0.158156 0.028269
vt 0.203178 0.014612
vt 0.250000 0.010000
vt 0.296822 0.014612
vt 0.341844 0.028269
vt 0.383337 0.050447
vt 0.419706 0.080294
vt 0.449553 0.116663
vt 0.471731 0.158156
vt 0.485388 0.203178
vt 0.490000 0.250000
vt 0.485388 0.296822
vt 0.471731 0.341844
vt 0.449553 0.383337
vt 0.419706 0.419706
vt 0.383337 0.449553
vt 0.341844 0.471731
vt 0.031250 1.000000
vt 0.031250 0.500000
vt 0.000000 1.000000
vt 0.000000 0.500000
vt 0.750000 0.490000
vt 0.796822 0.485388
vt 0.841844 0.471731
vt 0.883337 0.449553
vt 0.919706 0.419706
vt 0.949553 0.383337
vt 0.971731 0.341844
vt 0.985388 0.296822
vt 0.990000 0.250000
vt 0.985388 0.203178
vt 0.971731 0.158156
vt 0.949553 0.116663
vt 0.919706 0.080294
vt 0.883337 0.050447
vt 0.841844 0.028269
vt 0.796822 0.014612
vt 0.750000 0.010000
vt 0.703178 0.014612
vt 0.658156 0.028269
vt 0.616663 0.050447
vt 0.580294 0.080294
vt 0.550447 0.116663
vt 0.528269 0.158156
vt 0.514612 0.203178
vt 0.510000 0.250000
vt 0.514612 0.296822
vt 0.528269 0.341844
vt 0.550447 0.383337
vt 0.580294 0.419706
vt 0.616663 0.449553
vt 0.658156 0.471731
vt 0.703178 0.485388
s 0
f 141/275/75 142/276/75 144/277/75 143/278/75
f 143/278/76 144/277/76 146/279/76 145/280/76
f 145/280/77 146/279/77 148/281/77 147/282/77
f 147/282/78 148/281/78 150/283/78 149/284/78
f 149/284/79 150/283/79 152/285/79 151/286/79
f 151/286/80 152/285/80 154/287/80 153/288/80
f 153/288/81 154/287/81 156/289/81 155/290/81
f 155/290/82 156/289/82 158/291/82 157/292/82
f 157/292/83 158/291/83 160/293/83 159/294/83
f 159/294/84 160/293/84 162/295/84 161/296/84
f 161/296/85 162/295/85 164/297/85 163/298/85
f 163/298/86 164/297/86 166/299/86 165/300/86
f 165/300/87 166/299/87 168/301/87 167/302/87
f 167/302/88 168/301/88 170/303/88 169/304/88
f 169/304/89 170/303/89 172/305/89 171/306/89
f 171/306/90 172/305/90 174/307/90 173/308/90
f 173/308/91 174/307/91 176/309/91 175/310/91
f 175/310/92 176/309/92 178/311/92 177/312/92
f 177/312/93 178/311/93 180/313/93 179/314/93
f 179/314/94 180/313/94 182/315/94 181/316/94
f 181/316/95 182/315/95 184/317/95 183/318/95
f 183/318/96 184/317/96 186/319/96 185/320/96
f 185/320/97 186/319/97 188/321/97 187/322/97
f 187/322/98 188/321/98 190/323/98 189/324/98
f 189/324/99 190/323/99 192/325/99 191/326/99
f 191/326/100 192/325/100 194/327/100 193/328/100
f 193/328/101 194/327/101 196/329/101 195/330/101
f 195/330/102 196/329/102 198/331/102 197/332/102
f 197/332/103 198/331/103 200/333/103 199/334/103
f 199/334/104 200/333/104 202/335/104 201/336/104
f 144/337/105 142/338/105 204/339/105 202/340/105 200/341/105 198/342/105 196/343/105 194/344/105 192/345/105 190/346/105 188/347/105 186/348/105 184/349/105 182/350/105 180/351/105 178/352/105 176/353/105 174/354/105 172/355/105 170/356/105 168/357/105 166/358/105 164/359/105 162/360/105 160/361/105 158/362/105 156/363/105 154/364/105 152/365/105 150/366/105 148/367/105 146/368/105
f 201/336/106 202/335/106 204/369/106 203/370/106
f 203/370/107 204/369/107 142/371/107 141/372/107
f 141/373/108 143/374/108 145/375/108 147/376/108 149/377/108 151/378/108 153/379/108 155/380/108 157/381/108 159/382/108 161/383/108 163/384/108 165/385/108 167/386/108 169/387/108 171/388/108 173/389/108 175/390/108 177/391/108 179/392/108 181/393/108 183/394/108 185/395/108 187/396/108 189/397/108 191/398/108 193/399/108 195/400/108 197/401/108 199/402/108 201/403/108 203/404/108
o Цилиндр.002
v 0.132036 3.137210 8.197508
v 0.119980 5.990235 8.198907
v 0.281913 3.137837 8.209724
v 0.269858 5.990862 8.211124
v 0.426527 3.138428 8.250946
v 0.414472 5.991453 8.252345
v 0.560321 3.138960 8.319587
v 0.548266 5.991984 8.320987
v 0.678152 3.139412 8.413012
v 0.666097 5.992436 8.414411
v 0.775493 3.139767 8.527628
v 0.763438 5.992792 8.529027
v 0.848602 3.140011 8.659032
v 0.836547 5.993036 8.660431
v 0.894671 3.140136 8.802174
v 0.882616 5.993160 8.803574
v 0.911929 3.140136 8.951553
v 0.899874 5.993160 8.952952
v 0.899713 3.140010 9.101428
v 0.887658 5.993035 9.102828
v 0.858491 3.139765 9.246041
v 0.846436 5.992790 9.247440
v 0.789849 3.139410 9.379833
v 0.777794 5.992435 9.381232
v 0.696424 3.138957 9.497663
v 0.684369 5.991982 9.499062
v 0.581806 3.138425 9.595002
v 0.569751 5.991450 9.596401
v 0.450401 3.137834 9.668111
v 0.438346 5.990859 9.669510
v 0.307257 3.137207 9.714179
v 0.295202 5.990231 9.715578
v 0.157876 3.136567 9.731437
v 0.145821 5.989592 9.732836
v 0.007999 3.135940 9.719219
v -0.004056 5.988964 9.720619
v -0.136615 3.135349 9.677999
v -0.148670 5.988373 9.679398
v -0.270409 3.134817 9.609357
v -0.282464 5.987842 9.610757
v -0.388240 3.134365 9.515933
v -0.400295 5.987390 9.517332
v -0.485581 3.134010 9.401317
v -0.497636 5.987035 9.402716
v -0.558691 3.133765 9.269913
v -0.570746 5.986790 9.271312
v -0.604760 3.133641 9.126770
v -0.616815 5.986666 9.128170
v -0.622018 3.133641 8.977391
v -0.634073 5.986666 8.978790
v -0.609801 3.133766 8.827516
v -0.621856 5.986791 8.828916
v -0.568579 3.134012 8.682903
v -0.580635 5.987036 8.684302
v -0.499937 3.134367 8.549111
v -0.511992 5.987392 8.550510
v -0.406512 3.134820 8.431282
v -0.418567 5.987844 8.432681
v -0.291895 3.135352 8.333942
v -0.303950 5.988377 8.335341
v -0.160489 3.135943 8.260834
v -0.172544 5.988968 8.262233
v -0.017345 3.136570 8.214766
v -0.029400 5.989595 8.216165
vn 0.0812 0.0008 -0.9967
vn 0.2741 0.0016 -0.9617
vn 0.4565 0.0024 -0.8897
vn 0.6213 0.0030 -0.7836
vn 0.7622 0.0035 -0.6473
vn 0.8738 0.0039 -0.4862
vn 0.9519 0.0042 -0.3064
vn 0.9934 0.0043 -0.1148
vn 0.9967 0.0042 0.0812
vn 0.9617 0.0039 0.2741
vn 0.8897 0.0035 0.4565
vn 0.7836 0.0030 0.6213
vn 0.6473 0.0024 0.7622
vn 0.4862 0.0016 0.8739
vn 0.3064 0.0008 0.9519
vn 0.1148 -0.0000 0.9934
vn -0.0812 -0.0008 0.9967
vn -0.2741 -0.0016 0.9617
vn -0.4565 -0.0024 0.8897
vn -0.6213 -0.0030 0.7836
vn -0.7622 -0.0035 0.6473
vn -0.8738 -0.0039 0.4862
vn -0.9519 -0.0042 0.3064
vn -0.9934 -0.0043 0.1148
vn -0.9967 -0.0042 -0.0812
vn -0.9617 -0.0039 -0.2741
vn -0.8897 -0.0035 -0.4565
vn -0.7836 -0.0030 -0.6213
vn -0.6473 -0.0024 -0.7622
vn -0.4862 -0.0016 -0.8739
vn -0.0042 1.0000 0.0005
vn -0.3064 -0.0008 -0.9519
vn -0.1148 -0.0000 -0.9934
vn 0.0042 -1.0000 -0.0005
vt 1.000000 0.500000
vt 1.000000 1.000000
vt 0.968750 1.000000
vt 0.968750 0.500000
vt 0.937500 1.000000
vt 0.937500 0.500000
vt 0.906250 1.000000
vt 0.906250 0.500000
vt 0.875000 1.000000
vt 0.875000 0.500000
vt 0.843750 1.000000
vt 0.843750 0.500000
vt 0.812500 1.000000
vt 0.812500 0.500000
vt 0.781250 1.000000
vt 0.781250 0.500000
vt 0.750000 1.000000
vt 0.750000 0.500000
vt 0.718750 1.000000
vt 0.718750 0.500000
vt 0.687500 1.000000
vt 0.687500 0.500000
vt 0.656250 1.000000
vt 0.656250 0.500000
vt 0.625000 1.000000
vt 0.625000 0.500000
vt 0.593750 1.000000
vt 0.593750 0.500000
vt 0.562500 1.000000
vt 0.562500 0.500000
vt 0.531250 1.000000
vt 0.531250 0.500000
vt 0.500000 1.000000
vt 0.500000 0.500000
vt 0.468750 1.000000
vt 0.468750 0.500000
vt 0.437500 1.000000
vt 0.437500 0.500000
vt 0.406250 1.000000
vt 0.406250 0.500000
vt 0.375000 1.000000
vt 0.375000 0.500000
vt 0.343750 1.000000
vt 0.343750 0.500000
vt 0.312500 1.000000
vt 0.312500 0.500000
vt 0.281250 1.000000
vt 0.281250 0.500000
vt 0.250000 1.000000
vt 0.250000 0.500000
vt 0.218750 1.000000
vt 0.218750 0.500000
vt 0.187500 1.000000
vt 0.187500 0.500000
vt 0.156250 1.000000
vt 0.156250 0.500000
vt 0.125000 1.000000
vt 0.125000 0.500000
vt 0.093750 1.000000
vt 0.093750 0.500000
vt 0.062500 1.000000
vt 0.062500 0.500000
vt 0.296822 0.485388
vt 0.250000 0.490000
vt 0.203178 0.485388
vt 0.158156 0.471731
vt 0.116663 0.449553
vt 0.080294 0.419706
vt 0.050447 0.383337
vt 0.028269 0.341844
vt 0.014612 0.296822
vt 0.010000 0.250000
vt 0.014612 0.203178
vt 0.028269 0.158156
vt 0.050447 0.116663
vt 0.080294 0.080294
vt 0.116663 0.050447
vt 0.158156 0.028269
vt 0.203178 0.014612
vt 0.250000 0.010000
vt 0.296822 0.014612
vt 0.341844 0.028269
vt 0.383337 0.050447
vt 0.419706 0.080294
vt 0.449553 0.116663
vt 0.471731 0.158156
vt 0.485388 0.203178
vt 0.490000 0.250000
vt 0.485388 0.296822
vt 0.471731 0.341844
vt 0.449553 0.383337
vt 0.419706 0.419706
vt 0.383337 0.449553
vt 0.341844 0.471731
vt 0.031250 1.000000
vt 0.031250 0.500000
vt 0.000000 1.000000
vt 0.000000 0.500000
vt 0.750000 0.490000
vt 0.796822 0.485388
vt 0.841844 0.471731
vt 0.883337 0.449553
vt 0.919706 0.419706
vt 0.949553 0.383337
vt 0.971731 0.341844
vt 0.985388 0.296822
vt 0.990000 0.250000
vt 0.985388 0.203178
vt 0.971731 0.158156
vt 0.949553 0.116663
vt 0.919706 0.080294
vt 0.883337 0.050447
vt 0.841844 0.028269
vt 0.796822 0.014612
vt 0.750000 0.010000
vt 0.703178 0.014612
vt 0.658156 0.028269
vt 0.616663 0.050447
vt 0.580294 0.080294
vt 0.550447 0.116663
vt 0.528269 0.158156
vt 0.514612 0.203178
vt 0.510000 0.250000
vt 0.514612 0.296822
vt 0.528269 0.341844
vt 0.550447 0.383337
vt 0.580294 0.419706
vt 0.616663 0.449553
vt 0.658156 0.471731
vt 0.703178 0.485388
s 0
f 205/405/109 206/406/109 208/407/109 207/408/109
f 207/408/110 208/407/110 210/409/110 209/410/110
f 209/410/111 210/409/111 212/411/111 211/412/111
f 211/412/112 212/411/112 214/413/112 213/414/112
f 213/414/113 214/413/113 216/415/113 215/416/113
f 215/416/114 216/415/114 218/417/114 217/418/114
f 217/418/115 218/417/115 220/419/115 219/420/115
f 219/420/116 220/419/116 222/421/116 221/422/116
f 221/422/117 222/421/117 224/423/117 223/424/117
f 223/424/118 224/423/118 226/425/118 225/426/118
f 225/426/119 226/425/119 228/427/119 227/428/119
f 227/428/120 228/427/120 230/429/120 229/430/120
f 229/430/121 230/429/121 232/431/121 231/432/121
f 231/432/122 232/431/122 234/433/122 233/434/122
f 233/434/123 234/433/123 236/435/123 235/436/123
f 235/436/124 236/435/124 238/437/124 237/438/124
f 237/438/125 238/437/125 240/439/125 239/440/125
f 239/440/126 240/439/126 242/441/126 241/442/126
f 241/442/127 242/441/127 244/443/127 243/444/127
f 243/444/128 244/443/128 246/445/128 245/446/128
f 245/446/129 246/445/129 248/447/129 247/448/129
f 247/448/130 248/447/130 250/449/130 249/450/130
f 249/450/131 250/449/131 252/451/131 251/452/131
f 251/452/132 252/451/132 254/453/132 253/454/132
f 253/454/133 254/453/133 256/455/133 255/456/133
f 255/456/134 256/455/134 258/457/134 257/458/134
f 257/458/135 258/457/135 260/459/135 259/460/135
f 259/460/136 260/459/136 262/461/136 261/462/136
f 261/462/137 262/461/137 264/463/137 263/464/137
f 263/464/138 264/463/138 266/465/138 265/466/138
f 208/467/139 206/468/139 268/469/139 266/470/139 264/471/139 262/472/139 260/473/139 258/474/139 256/475/139 254/476/139 252/477/139 250/478/139 248/479/139 246/480/139 244/481/139 242/482/139 240/483/139 238/484/139 236/485/139 234/486/139 232/487/139 230/488/139 228/489/139 226/490/139 224/491/139 222/492/139 220/493/139 218/494/139 216/495/139 214/496/139 212/497/139 210/498/139
f 265/466/140 266/465/140 268/499/140 267/500/140
f 267/500/141 268/499/141 206/501/141 205/502/141
f 205/503/142 207/504/142 209/505/142 211/506/142 213/507/142 215/508/142 217/509/142 219/510/142 221/511/142 223/512/142 225/513/142 227/514/142 229/515/142 231/516/142 233/517/142 235/518/142 237/519/142 239/520/142 241/521/142 243/522/142 245/523/142 247/524/142 249/525/142 251/526/142 253/527/142 255/528/142 257/529/142 259/530/142 261/531/142 263/532/142 265/533/142 267/534/142
o Цилиндр
v 0.111977 -0.910802 10.697319
v 0.112108 6.639479 10.697126
v 0.284197 -0.910805 10.716529
v 0.284328 6.639476 10.716335
v 0.449799 -0.910806 10.773428
v 0.449930 6.639475 10.773234
v 0.602420 -0.910806 10.865829
v 0.602551 6.639474 10.865637
v 0.736195 -0.910805 10.990184
v 0.736326 6.639475 10.989990
v 0.845982 -0.910803 11.141710
v 0.846113 6.639477 11.141517
v 0.927563 -0.910800 11.314588
v 0.927693 6.639481 11.314394
v 0.977802 -0.910796 11.502171
v 0.977933 6.639484 11.501977
v 0.994769 -0.910792 11.697251
v 0.994900 6.639489 11.697058
v 0.977812 -0.910786 11.892333
v 0.977942 6.639494 11.892139
v 0.927582 -0.910781 12.079919
v 0.927713 6.639500 12.079725
v 0.846010 -0.910775 12.252800
v 0.846141 6.639505 12.252606
v 0.736230 -0.910769 12.404332
v 0.736361 6.639512 12.404139
v 0.602462 -0.910764 12.528692
v 0.602593 6.639517 12.528500
v 0.449846 -0.910758 12.621102
v 0.449977 6.639522 12.620909
v 0.284246 -0.910754 12.678009
v 0.284377 6.639526 12.677816
v 0.112028 -0.910751 12.697227
v 0.112158 6.639530 12.697035
v -0.060192 -0.910748 12.678019
v -0.060061 6.639532 12.677825
v -0.225794 -0.910747 12.621119
v -0.225664 6.639534 12.620926
v -0.378415 -0.910747 12.528717
v -0.378285 6.639534 12.528524
v -0.512190 -0.910748 12.404364
v -0.512059 6.639533 12.404170
v -0.621977 -0.910749 12.252837
v -0.621846 6.639531 12.252644
v -0.703557 -0.910753 12.079960
v -0.703427 6.639528 12.079766
v -0.753797 -0.910756 11.892377
v -0.753666 6.639524 11.892183
v -0.770764 -0.910761 11.697296
v -0.770633 6.639520 11.697103
v -0.753806 -0.910766 11.502214
v -0.753676 6.639514 11.502021
v -0.703577 -0.910772 11.314629
v -0.703446 6.639508 11.314435
v -0.622005 -0.910778 11.141747
v -0.621874 6.639503 11.141554
v -0.512225 -0.910784 10.990215
v -0.512094 6.639497 10.990022
v -0.378457 -0.910789 10.865854
v -0.378326 6.639491 10.865662
v -0.225841 -0.910794 10.773445
v -0.225710 6.639486 10.773252
v -0.060241 -0.910799 10.716537
v -0.060111 6.639482 10.716345
vn 0.1109 -0.0000 -0.9938
vn 0.3249 -0.0000 -0.9457
vn 0.5179 -0.0000 -0.8554
vn 0.6808 -0.0000 -0.7324
vn 0.8098 -0.0000 -0.5867
vn 0.9044 -0.0000 -0.4268
vn 0.9660 -0.0000 -0.2587
vn 0.9962 -0.0000 -0.0866
vn 0.9962 -0.0000 0.0866
vn 0.9660 -0.0000 0.2587
vn 0.9044 -0.0000 0.4267
vn 0.8098 -0.0000 0.5867
vn 0.6809 -0.0000 0.7324
vn 0.5180 -0.0000 0.8554
vn 0.3250 -0.0000 0.9457
vn 0.1109 -0.0000 0.9938
vn -0.1109 -0.0000 0.9938
vn -0.3249 -0.0000 0.9457
vn -0.5179 -0.0000 0.8554
vn -0.6808 -0.0000 0.7324
vn -0.8098 -0.0000 0.5867
vn -0.9044 -0.0000 0.4268
vn -0.9660 -0.0000 0.2587
vn -0.9962 -0.0000 0.0866
vn -0.9962 -0.0000 -0.0866
vn -0.9660 -0.0000 -0.2587
vn -0.9044 -0.0000 -0.4267
vn -0.8098 -0.0000 -0.5867
vn -0.6809 -0.0000 -0.7324
vn -0.5180 -0.0000 -0.8554
vn -0.0000 1.0000 -0.0000
vn -0.3250 -0.0000 -0.9457
vn -0.1109 -0.0000 -0.9938
vn -0.0000 -1.0000 -0.0000
vt 1.000000 0.500000
vt 1.000000 1.000000
vt 0.968750 1.000000
vt 0.968750 0.500000
vt 0.937500 1.000000
vt 0.937500 0.500000
vt 0.906250 1.000000
vt 0.906250 0.500000
vt 0.875000 1.000000
vt 0.875000 0.500000
vt 0.843750 1.000000
vt 0.843750 0.500000
vt 0.812500 1.000000
vt 0.812500 0.500000
vt 0.781250 1.000000
vt 0.781250 0.500000
vt 0.750000 1.000000
vt 0.750000 0.500000
vt 0.718750 1.000000
vt 0.718750 0.500000
vt 0.687500 1.000000
vt 0.687500 0.500000
vt 0.656250 1.000000
vt 0.656250 0.500000
vt 0.625000 1.000000
vt 0.625000 0.500000
vt 0.593750 1.000000
vt 0.593750 0.500000
vt 0.562500 1.000000
vt 0.562500 0.500000
vt 0.531250 1.000000
vt 0.531250 0.500000
vt 0.500000 1.000000
vt 0.500000 0.500000
vt 0.468750 1.000000
vt 0.468750 0.500000
vt 0.437500 1.000000
vt 0.437500 0.500000
vt 0.406250 1.000000
vt 0.406250 0.500000
vt 0.375000 1.000000
vt 0.375000 0.500000
vt 0.343750 1.000000
vt 0.343750 0.500000
vt 0.312500 1.000000
vt 0.312500 0.500000
vt 0.281250 1.000000
vt 0.281250 0.500000
vt 0.250000 1.000000
vt 0.250000 0.500000
vt 0.218750 1.000000
vt 0.218750 0.500000
vt 0.187500 1.000000
vt 0.187500 0.500000
vt 0.156250 1.000000
vt 0.156250 0.500000
vt 0.125000 1.000000
vt 0.125000 0.500000
vt 0.093750 1.000000
vt 0.093750 0.500000
vt 0.062500 1.000000
vt 0.062500 0.500000
vt 0.296822 0.485388
vt 0.250000 0.490000
vt 0.203178 0.485388
vt 0.158156 0.471731
vt 0.116663 0.449553
vt 0.080294 0.419706
vt 0.050447 0.383337
vt 0.028269 0.341844
vt 0.014612 0.296822
vt 0.010000 0.250000
vt 0.014612 0.203178
vt 0.028269 0.158156
vt 0.050447 0.116663
vt 0.080294 0.080294
vt 0.116663 0.050447
vt 0.158156 0.028269
vt 0.203178 0.014612
vt 0.250000 0.010000
vt 0.296822 0.014612
vt 0.341844 0.028269
vt 0.383337 0.050447
vt 0.419706 0.080294
vt 0.449553 0.116663
vt 0.471731 0.158156
vt 0.485388 0.203178
vt 0.490000 0.250000
vt 0.485388 0.296822
vt 0.471731 0.341844
vt 0.449553 0.383337
vt 0.419706 0.419706
vt 0.383337 0.449553
vt 0.341844 0.471731
vt 0.031250 1.000000
vt 0.031250 0.500000
vt 0.000000 1.000000
vt 0.000000 0.500000
vt 0.750000 0.490000
vt 0.796822 0.485388
vt 0.841844 0.471731
vt 0.883337 0.449553
vt 0.919706 0.419706
vt 0.949553 0.383337
vt 0.971731 0.341844
vt 0.985388 0.296822
vt 0.990000 0.250000
vt 0.985388 0.203178
vt 0.971731 0.158156
vt 0.949553 0.116663
vt 0.919706 0.080294
vt 0.883337 0.050447
vt 0.841844 0.028269
vt 0.796822 0.014612
vt 0.750000 0.010000
vt 0.703178 0.014612
vt 0.658156 0.028269
vt 0.616663 0.050447
vt 0.580294 0.080294
vt 0.550447 0.116663
vt 0.528269 0.158156
vt 0.514612 0.203178
vt 0.510000 0.250000
vt 0.514612 0.296822
vt 0.528269 0.341844
vt 0.550447 0.383337
vt 0.580294 0.419706
vt 0.616663 0.449553
vt 0.658156 0.471731
vt 0.703178 0.485388
s 0
f 269/535/143 270/536/143 272/537/143 271/538/143
f 271/538/144 272/537/144 274/539/144 273/540/144
f 273/540/145 274/539/145 276/541/145 275/542/145
f 275/542/146 276/541/146 278/543/146 277/544/146
f 277/544/147 278/543/147 280/545/147 279/546/147
f 279/546/148 280/545/148 282/547/148 281/548/148
f 281/548/149 282/547/149 284/549/149 283/550/149
f 283/550/150 284/549/150 286/551/150 285/552/150
f 285/552/151 286/551/151 288/553/151 287/554/151
f 287/554/152 288/553/152 290/555/152 289/556/152
f 289/556/153 290/555/153 292/557/153 291/558/153
f 291/558/154 292/557/154 294/559/154 293/560/154
f 293/560/155 294/559/155 296/561/155 295/562/155
f 295/562/156 296/561/156 298/563/156 297/564/156
f 297/564/157 298/563/157 300/565/157 299/566/157
f 299/566/158 300/565/158 302/567/158 301/568/158
f 301/568/159 302/567/159 304/569/159 303/570/159
f 303/570/160 304/569/160 306/571/160 305/572/160
f 305/572/161 306/571/161 308/573/161 307/574/161
f 307/574/162 308/573/162 310/575/162 309/576/162
f 309/576/163 310/575/163 312/577/163 311/578/163
f 311/578/164 312/577/164 314/579/164 313/580/164
f 313/580/165 314/579/165 316/581/165 315/582/165
f 315/582/166 316/581/166 318/583/166 317/584/166
f 317/584/167 318/583/167 320/585/167 319/586/167
f 319/586/168 320/585/168 322/587/168 321/588/168
f 321/588/169 322/587/169 324/589/169 323/590/169
f 323/590/170 324/589/170 326/591/170 325/592/170
f 325/592/171 326/591/171 328/593/171 327/594/171
f 327/594/172 328/593/172 330/595/172 329/596/172
f 272/597/173 270/598/173 332/599/173 330/600/173 328/601/173 326/602/173 324/603/173 322/604/173 320/605/173 318/606/173 316/607/173 314/608/173 312/609/173 310/610/173 308/611/173 306/612/173 304/613/173 302/614/173 300/615/173 298/616/173 296/617/173 294/618/173 292/619/173 290/620/173 288/621/173 286/622/173 284/623/173 282/624/173 280/625/173 278/626/173 276/627/173 274/628/173
f 329/596/174 330/595/174 332/629/174 331/630/174
f 331/630/175 332/629/175 270/631/175 269/632/175
f 269/633/176 271/634/176 273/635/176 275/636/176 277/637/176 279/638/176 281/639/176 283/640/176 285/641/176 287/642/176 289/643/176 291/644/176 293/645/176 295/646/176 297/647/176 299/648/176 301/649/176 303/650/176 305/651/176 307/652/176 309/653/176 311/654/176 313/655/176 315/656/176 317/657/176 319/658/176 321/659/176 323/660/176 325/661/176 327/662/176 329/663/176 331/664/176
